<mxfile host="Electron" agent="Mozilla/5.0 (Macintosh; Intel Mac OS X 10_15_7) AppleWebKit/537.36 (KHTML, like Gecko) draw.io/26.1.1 Chrome/132.0.6834.210 Electron/34.3.3 Safari/537.36" version="26.1.1" pages="5">
  <diagram name="data-dictionaries" id="ivfF4GWM53ZjKB8wbvqa">
    <mxGraphModel dx="1812" dy="1056" grid="1" gridSize="10" guides="1" tooltips="1" connect="1" arrows="1" fold="1" page="1" pageScale="1" pageWidth="827" pageHeight="1169" math="0" shadow="0">
      <root>
        <mxCell id="0" />
        <mxCell id="1" parent="0" />
        <mxCell id="cq3yTVCyNT4Rj4xP0F5D-26" style="edgeStyle=orthogonalEdgeStyle;rounded=0;orthogonalLoop=1;jettySize=auto;html=1;entryX=0;entryY=0.5;entryDx=0;entryDy=0;exitX=1;exitY=0.75;exitDx=0;exitDy=0;" edge="1" parent="1" source="cq3yTVCyNT4Rj4xP0F5D-27" target="cq3yTVCyNT4Rj4xP0F5D-34">
          <mxGeometry relative="1" as="geometry">
            <mxPoint x="380" y="360" as="sourcePoint" />
          </mxGeometry>
        </mxCell>
        <mxCell id="cq3yTVCyNT4Rj4xP0F5D-27" value="DataField&lt;div&gt;&lt;br&gt;&lt;/div&gt;" style="rounded=0;whiteSpace=wrap;html=1;fillColor=#dae8fc;strokeColor=#6c8ebf;" vertex="1" parent="1">
          <mxGeometry x="256" y="320" width="120" height="60" as="geometry" />
        </mxCell>
        <mxCell id="cq3yTVCyNT4Rj4xP0F5D-28" value="DataField" style="rounded=0;whiteSpace=wrap;html=1;fillColor=#dae8fc;strokeColor=#6c8ebf;" vertex="1" parent="1">
          <mxGeometry x="256" y="390" width="120" height="60" as="geometry" />
        </mxCell>
        <mxCell id="cq3yTVCyNT4Rj4xP0F5D-29" style="edgeStyle=orthogonalEdgeStyle;rounded=0;orthogonalLoop=1;jettySize=auto;html=1;exitX=0.5;exitY=1;exitDx=0;exitDy=0;entryX=0;entryY=0.5;entryDx=0;entryDy=0;fillColor=#dae8fc;strokeColor=#6c8ebf;" edge="1" parent="1" source="cq3yTVCyNT4Rj4xP0F5D-32" target="cq3yTVCyNT4Rj4xP0F5D-27">
          <mxGeometry relative="1" as="geometry" />
        </mxCell>
        <mxCell id="cq3yTVCyNT4Rj4xP0F5D-30" style="edgeStyle=orthogonalEdgeStyle;rounded=0;orthogonalLoop=1;jettySize=auto;html=1;exitX=0.5;exitY=1;exitDx=0;exitDy=0;entryX=0;entryY=0.5;entryDx=0;entryDy=0;fillColor=#dae8fc;strokeColor=#6c8ebf;" edge="1" parent="1" source="cq3yTVCyNT4Rj4xP0F5D-32" target="cq3yTVCyNT4Rj4xP0F5D-28">
          <mxGeometry relative="1" as="geometry" />
        </mxCell>
        <mxCell id="cq3yTVCyNT4Rj4xP0F5D-31" style="edgeStyle=orthogonalEdgeStyle;rounded=0;orthogonalLoop=1;jettySize=auto;html=1;exitX=0.5;exitY=1;exitDx=0;exitDy=0;dashed=1;" edge="1" parent="1" source="cq3yTVCyNT4Rj4xP0F5D-32">
          <mxGeometry relative="1" as="geometry">
            <mxPoint x="223" y="500" as="targetPoint" />
          </mxGeometry>
        </mxCell>
        <mxCell id="cq3yTVCyNT4Rj4xP0F5D-32" value="DataDictionary" style="rounded=0;whiteSpace=wrap;html=1;fillColor=#0050ef;strokeColor=#001DBC;fontColor=#ffffff;" vertex="1" parent="1">
          <mxGeometry x="163" y="210" width="120" height="60" as="geometry" />
        </mxCell>
        <mxCell id="cq3yTVCyNT4Rj4xP0F5D-34" value="DataClass&lt;div&gt;&lt;br&gt;&lt;/div&gt;" style="rounded=0;whiteSpace=wrap;html=1;fillColor=#e1d5e7;strokeColor=#9673a6;" vertex="1" parent="1">
          <mxGeometry x="560" y="335" width="120" height="60" as="geometry" />
        </mxCell>
        <mxCell id="cq3yTVCyNT4Rj4xP0F5D-35" value="Structural" style="text;html=1;align=center;verticalAlign=middle;resizable=0;points=[];autosize=1;strokeColor=none;fillColor=none;" vertex="1" parent="1">
          <mxGeometry x="281" y="350" width="70" height="30" as="geometry" />
        </mxCell>
        <mxCell id="cq3yTVCyNT4Rj4xP0F5D-36" value="Valid Values" style="text;html=1;align=center;verticalAlign=middle;resizable=0;points=[];autosize=1;strokeColor=none;fillColor=none;" vertex="1" parent="1">
          <mxGeometry x="575" y="365" width="90" height="30" as="geometry" />
        </mxCell>
        <mxCell id="cq3yTVCyNT4Rj4xP0F5D-37" style="edgeStyle=orthogonalEdgeStyle;rounded=0;orthogonalLoop=1;jettySize=auto;html=1;exitX=1;exitY=0.5;exitDx=0;exitDy=0;entryX=0;entryY=0.5;entryDx=0;entryDy=0;dashed=1;" edge="1" parent="1" source="cq3yTVCyNT4Rj4xP0F5D-38" target="cq3yTVCyNT4Rj4xP0F5D-42">
          <mxGeometry relative="1" as="geometry" />
        </mxCell>
        <mxCell id="cq3yTVCyNT4Rj4xP0F5D-38" value="DataField" style="rounded=0;whiteSpace=wrap;html=1;fillColor=#dae8fc;strokeColor=#6c8ebf;" vertex="1" parent="1">
          <mxGeometry x="336" y="480" width="120" height="60" as="geometry" />
        </mxCell>
        <mxCell id="cq3yTVCyNT4Rj4xP0F5D-39" style="edgeStyle=orthogonalEdgeStyle;rounded=0;orthogonalLoop=1;jettySize=auto;html=1;entryX=0;entryY=0.5;entryDx=0;entryDy=0;fillColor=#dae8fc;strokeColor=#6c8ebf;exitX=0.5;exitY=1;exitDx=0;exitDy=0;" edge="1" parent="1" source="cq3yTVCyNT4Rj4xP0F5D-28" target="cq3yTVCyNT4Rj4xP0F5D-38">
          <mxGeometry relative="1" as="geometry">
            <mxPoint x="283" y="470" as="sourcePoint" />
          </mxGeometry>
        </mxCell>
        <mxCell id="cq3yTVCyNT4Rj4xP0F5D-40" value="DataField" style="rounded=0;whiteSpace=wrap;html=1;fillColor=#dae8fc;strokeColor=#6c8ebf;" vertex="1" parent="1">
          <mxGeometry x="336" y="549" width="120" height="60" as="geometry" />
        </mxCell>
        <mxCell id="cq3yTVCyNT4Rj4xP0F5D-41" style="edgeStyle=orthogonalEdgeStyle;rounded=0;orthogonalLoop=1;jettySize=auto;html=1;exitX=0.5;exitY=1;exitDx=0;exitDy=0;entryX=0;entryY=0.5;entryDx=0;entryDy=0;fillColor=#dae8fc;strokeColor=#6c8ebf;" edge="1" parent="1" source="cq3yTVCyNT4Rj4xP0F5D-28" target="cq3yTVCyNT4Rj4xP0F5D-40">
          <mxGeometry relative="1" as="geometry">
            <mxPoint x="296" y="440" as="sourcePoint" />
          </mxGeometry>
        </mxCell>
        <mxCell id="cq3yTVCyNT4Rj4xP0F5D-42" value="DataField" style="rounded=0;whiteSpace=wrap;html=1;fillColor=#dae8fc;strokeColor=#6c8ebf;" vertex="1" parent="1">
          <mxGeometry x="600" y="480" width="120" height="60" as="geometry" />
        </mxCell>
        <mxCell id="cq3yTVCyNT4Rj4xP0F5D-43" value="LinkedDataField" style="text;html=1;align=center;verticalAlign=middle;resizable=0;points=[];autosize=1;strokeColor=none;fillColor=none;" vertex="1" parent="1">
          <mxGeometry x="465" y="480" width="110" height="30" as="geometry" />
        </mxCell>
        <mxCell id="cq3yTVCyNT4Rj4xP0F5D-44" value="Nested&amp;nbsp;&lt;span style=&quot;background-color: transparent; color: light-dark(rgb(0, 0, 0), rgb(255, 255, 255));&quot;&gt;Data Field&lt;/span&gt;" style="text;html=1;align=center;verticalAlign=middle;resizable=0;points=[];autosize=1;strokeColor=none;fillColor=none;" vertex="1" parent="1">
          <mxGeometry x="320" y="450" width="120" height="30" as="geometry" />
        </mxCell>
        <mxCell id="cq3yTVCyNT4Rj4xP0F5D-45" style="edgeStyle=orthogonalEdgeStyle;rounded=0;orthogonalLoop=1;jettySize=auto;html=1;exitX=1;exitY=0.25;exitDx=0;exitDy=0;entryX=0;entryY=0.5;entryDx=0;entryDy=0;" edge="1" parent="1" source="cq3yTVCyNT4Rj4xP0F5D-27" target="cq3yTVCyNT4Rj4xP0F5D-46">
          <mxGeometry relative="1" as="geometry">
            <mxPoint x="376" y="250" as="sourcePoint" />
          </mxGeometry>
        </mxCell>
        <mxCell id="cq3yTVCyNT4Rj4xP0F5D-46" value="GlossaryTerm&lt;div&gt;&lt;br&gt;&lt;/div&gt;" style="rounded=0;whiteSpace=wrap;html=1;fillColor=#d5e8d4;strokeColor=#82b366;" vertex="1" parent="1">
          <mxGeometry x="560" y="220" width="120" height="60" as="geometry" />
        </mxCell>
        <mxCell id="cq3yTVCyNT4Rj4xP0F5D-47" value="Meaning" style="text;html=1;align=center;verticalAlign=middle;resizable=0;points=[];autosize=1;strokeColor=none;fillColor=none;rotation=0;" vertex="1" parent="1">
          <mxGeometry x="585" y="250" width="70" height="30" as="geometry" />
        </mxCell>
        <mxCell id="cq3yTVCyNT4Rj4xP0F5D-48" value="DataClassDefinition" style="text;html=1;align=center;verticalAlign=middle;resizable=0;points=[];autosize=1;strokeColor=none;fillColor=none;" vertex="1" parent="1">
          <mxGeometry x="425" y="365" width="130" height="30" as="geometry" />
        </mxCell>
        <mxCell id="cq3yTVCyNT4Rj4xP0F5D-49" value="SemanticDefinition" style="text;html=1;align=center;verticalAlign=middle;resizable=0;points=[];autosize=1;strokeColor=none;fillColor=none;" vertex="1" parent="1">
          <mxGeometry x="428" y="220" width="120" height="30" as="geometry" />
        </mxCell>
        <mxCell id="cq3yTVCyNT4Rj4xP0F5D-50" value="CollectionMembership" style="text;html=1;align=center;verticalAlign=middle;resizable=0;points=[];autosize=1;strokeColor=none;fillColor=none;" vertex="1" parent="1">
          <mxGeometry x="80" y="280" width="140" height="30" as="geometry" />
        </mxCell>
      </root>
    </mxGraphModel>
  </diagram>
  <diagram name="data-specs" id="Joc9X0ZsDtM7K7cnzbuz">
    <mxGraphModel dx="1812" dy="1056" grid="1" gridSize="10" guides="1" tooltips="1" connect="1" arrows="1" fold="1" page="1" pageScale="1" pageWidth="827" pageHeight="1169" math="0" shadow="0">
      <root>
        <mxCell id="eEMLUPJrMJkQv50nJy7n-0" />
        <mxCell id="eEMLUPJrMJkQv50nJy7n-1" parent="eEMLUPJrMJkQv50nJy7n-0" />
        <mxCell id="eEMLUPJrMJkQv50nJy7n-19" value="DataField&lt;div&gt;patientId&lt;/div&gt;" style="rounded=0;whiteSpace=wrap;html=1;fillColor=#dae8fc;strokeColor=#6c8ebf;" vertex="1" parent="eEMLUPJrMJkQv50nJy7n-1">
          <mxGeometry x="796" y="400" width="120" height="60" as="geometry" />
        </mxCell>
        <mxCell id="eEMLUPJrMJkQv50nJy7n-20" style="edgeStyle=orthogonalEdgeStyle;rounded=0;orthogonalLoop=1;jettySize=auto;html=1;exitX=0.5;exitY=1;exitDx=0;exitDy=0;entryX=0;entryY=0.5;entryDx=0;entryDy=0;fillColor=#dae8fc;strokeColor=#6c8ebf;" edge="1" parent="eEMLUPJrMJkQv50nJy7n-1" source="eEMLUPJrMJkQv50nJy7n-21" target="eEMLUPJrMJkQv50nJy7n-19">
          <mxGeometry relative="1" as="geometry" />
        </mxCell>
        <mxCell id="eEMLUPJrMJkQv50nJy7n-21" value="DataStructure&lt;div&gt;Weekly&lt;/div&gt;&lt;div&gt;Measurements&lt;/div&gt;" style="rounded=0;whiteSpace=wrap;html=1;fillColor=#dae8fc;strokeColor=#6c8ebf;" vertex="1" parent="eEMLUPJrMJkQv50nJy7n-1">
          <mxGeometry x="703" y="280" width="120" height="60" as="geometry" />
        </mxCell>
        <mxCell id="eEMLUPJrMJkQv50nJy7n-22" style="edgeStyle=orthogonalEdgeStyle;rounded=0;orthogonalLoop=1;jettySize=auto;html=1;exitX=0.5;exitY=1;exitDx=0;exitDy=0;entryX=0;entryY=0.25;entryDx=0;entryDy=0;fillColor=#dae8fc;strokeColor=#6c8ebf;" edge="1" parent="eEMLUPJrMJkQv50nJy7n-1" source="eEMLUPJrMJkQv50nJy7n-23" target="eEMLUPJrMJkQv50nJy7n-21">
          <mxGeometry relative="1" as="geometry" />
        </mxCell>
        <mxCell id="eJ3Q5zME1RGuLYwWdM7q-2" value="" style="edgeStyle=orthogonalEdgeStyle;rounded=0;orthogonalLoop=1;jettySize=auto;html=1;fillColor=#dae8fc;strokeColor=#6c8ebf;" edge="1" parent="eEMLUPJrMJkQv50nJy7n-1" source="eEMLUPJrMJkQv50nJy7n-23" target="eJ3Q5zME1RGuLYwWdM7q-1">
          <mxGeometry relative="1" as="geometry" />
        </mxCell>
        <mxCell id="eEMLUPJrMJkQv50nJy7n-23" value="DataSpec" style="rounded=0;whiteSpace=wrap;html=1;fillColor=#0050ef;strokeColor=#001DBC;fontColor=#ffffff;" vertex="1" parent="eEMLUPJrMJkQv50nJy7n-1">
          <mxGeometry x="600" y="60" width="120" height="60" as="geometry" />
        </mxCell>
        <mxCell id="eEMLUPJrMJkQv50nJy7n-40" value="Object&lt;div&gt;Identifier&lt;/div&gt;" style="rounded=1;whiteSpace=wrap;html=1;" vertex="1" parent="eEMLUPJrMJkQv50nJy7n-1">
          <mxGeometry x="860" y="370" width="80" height="40" as="geometry" />
        </mxCell>
        <mxCell id="eEMLUPJrMJkQv50nJy7n-44" value="MemberDataField" style="text;html=1;align=center;verticalAlign=middle;resizable=0;points=[];autosize=1;strokeColor=none;fillColor=none;" vertex="1" parent="eEMLUPJrMJkQv50nJy7n-1">
          <mxGeometry x="760" y="340" width="120" height="30" as="geometry" />
        </mxCell>
        <mxCell id="eEMLUPJrMJkQv50nJy7n-45" value="CollectionMembership" style="text;html=1;align=center;verticalAlign=middle;resizable=0;points=[];autosize=1;strokeColor=none;fillColor=none;" vertex="1" parent="eEMLUPJrMJkQv50nJy7n-1">
          <mxGeometry x="683" y="120" width="140" height="30" as="geometry" />
        </mxCell>
        <mxCell id="eEMLUPJrMJkQv50nJy7n-46" style="edgeStyle=orthogonalEdgeStyle;rounded=0;orthogonalLoop=1;jettySize=auto;html=1;entryX=0;entryY=0.75;entryDx=0;entryDy=0;" edge="1" parent="eEMLUPJrMJkQv50nJy7n-1" source="eEMLUPJrMJkQv50nJy7n-48" target="eEMLUPJrMJkQv50nJy7n-21">
          <mxGeometry relative="1" as="geometry" />
        </mxCell>
        <mxCell id="eEMLUPJrMJkQv50nJy7n-47" style="edgeStyle=orthogonalEdgeStyle;rounded=0;orthogonalLoop=1;jettySize=auto;html=1;exitX=0.5;exitY=1;exitDx=0;exitDy=0;" edge="1" parent="eEMLUPJrMJkQv50nJy7n-1" source="eEMLUPJrMJkQv50nJy7n-48" target="eEMLUPJrMJkQv50nJy7n-78">
          <mxGeometry relative="1" as="geometry" />
        </mxCell>
        <mxCell id="eEMLUPJrMJkQv50nJy7n-48" value="CertificationType&lt;div&gt;Valid measurements file&lt;/div&gt;" style="rounded=0;whiteSpace=wrap;html=1;fillColor=#6d8764;fontColor=#ffffff;strokeColor=#3A5431;" vertex="1" parent="eEMLUPJrMJkQv50nJy7n-1">
          <mxGeometry x="290" y="295" width="150" height="60" as="geometry" />
        </mxCell>
        <mxCell id="eEMLUPJrMJkQv50nJy7n-49" style="edgeStyle=orthogonalEdgeStyle;rounded=0;orthogonalLoop=1;jettySize=auto;html=1;entryX=0;entryY=0.5;entryDx=0;entryDy=0;exitX=1;exitY=0.75;exitDx=0;exitDy=0;" edge="1" parent="eEMLUPJrMJkQv50nJy7n-1" source="eEMLUPJrMJkQv50nJy7n-19" target="eEMLUPJrMJkQv50nJy7n-50">
          <mxGeometry relative="1" as="geometry">
            <mxPoint x="916" y="440" as="sourcePoint" />
          </mxGeometry>
        </mxCell>
        <mxCell id="eEMLUPJrMJkQv50nJy7n-50" value="DataClass" style="rounded=0;whiteSpace=wrap;html=1;fillColor=#e1d5e7;strokeColor=#9673a6;" vertex="1" parent="eEMLUPJrMJkQv50nJy7n-1">
          <mxGeometry x="1100" y="425" width="100" height="40" as="geometry" />
        </mxCell>
        <mxCell id="eEMLUPJrMJkQv50nJy7n-51" style="edgeStyle=orthogonalEdgeStyle;rounded=0;orthogonalLoop=1;jettySize=auto;html=1;exitX=1;exitY=0.25;exitDx=0;exitDy=0;entryX=0;entryY=0.5;entryDx=0;entryDy=0;" edge="1" parent="eEMLUPJrMJkQv50nJy7n-1" source="eEMLUPJrMJkQv50nJy7n-19" target="eEMLUPJrMJkQv50nJy7n-52">
          <mxGeometry relative="1" as="geometry">
            <mxPoint x="1100" y="457.5" as="sourcePoint" />
          </mxGeometry>
        </mxCell>
        <mxCell id="eEMLUPJrMJkQv50nJy7n-52" value="GlossaryTerm" style="rounded=0;whiteSpace=wrap;html=1;fillColor=#d5e8d4;strokeColor=#82b366;" vertex="1" parent="eEMLUPJrMJkQv50nJy7n-1">
          <mxGeometry x="1100" y="370" width="100" height="40" as="geometry" />
        </mxCell>
        <mxCell id="eEMLUPJrMJkQv50nJy7n-53" value="DataClassDefinition" style="text;html=1;align=center;verticalAlign=middle;resizable=0;points=[];autosize=1;strokeColor=none;fillColor=none;" vertex="1" parent="eEMLUPJrMJkQv50nJy7n-1">
          <mxGeometry x="965" y="415" width="130" height="30" as="geometry" />
        </mxCell>
        <mxCell id="eEMLUPJrMJkQv50nJy7n-54" value="SemanticDefinition" style="text;html=1;align=center;verticalAlign=middle;resizable=0;points=[];autosize=1;strokeColor=none;fillColor=none;" vertex="1" parent="eEMLUPJrMJkQv50nJy7n-1">
          <mxGeometry x="975" y="360" width="120" height="30" as="geometry" />
        </mxCell>
        <mxCell id="eEMLUPJrMJkQv50nJy7n-55" value="DataField&lt;div&gt;date&lt;/div&gt;" style="rounded=0;whiteSpace=wrap;html=1;fillColor=#dae8fc;strokeColor=#6c8ebf;" vertex="1" parent="eEMLUPJrMJkQv50nJy7n-1">
          <mxGeometry x="796" y="510" width="120" height="60" as="geometry" />
        </mxCell>
        <mxCell id="eEMLUPJrMJkQv50nJy7n-56" style="edgeStyle=orthogonalEdgeStyle;rounded=0;orthogonalLoop=1;jettySize=auto;html=1;exitX=0.5;exitY=1;exitDx=0;exitDy=0;entryX=0;entryY=0.5;entryDx=0;entryDy=0;fillColor=#dae8fc;strokeColor=#6c8ebf;" edge="1" parent="eEMLUPJrMJkQv50nJy7n-1" source="eEMLUPJrMJkQv50nJy7n-21" target="eEMLUPJrMJkQv50nJy7n-55">
          <mxGeometry relative="1" as="geometry">
            <mxPoint x="763" y="450" as="sourcePoint" />
          </mxGeometry>
        </mxCell>
        <mxCell id="eEMLUPJrMJkQv50nJy7n-57" style="edgeStyle=orthogonalEdgeStyle;rounded=0;orthogonalLoop=1;jettySize=auto;html=1;entryX=0;entryY=0.5;entryDx=0;entryDy=0;exitX=1;exitY=0.75;exitDx=0;exitDy=0;" edge="1" parent="eEMLUPJrMJkQv50nJy7n-1" source="eEMLUPJrMJkQv50nJy7n-55" target="eEMLUPJrMJkQv50nJy7n-58">
          <mxGeometry relative="1" as="geometry">
            <mxPoint x="916" y="550" as="sourcePoint" />
          </mxGeometry>
        </mxCell>
        <mxCell id="eEMLUPJrMJkQv50nJy7n-58" value="DataClass" style="rounded=0;whiteSpace=wrap;html=1;fillColor=#e1d5e7;strokeColor=#9673a6;" vertex="1" parent="eEMLUPJrMJkQv50nJy7n-1">
          <mxGeometry x="1100" y="535" width="100" height="40" as="geometry" />
        </mxCell>
        <mxCell id="eEMLUPJrMJkQv50nJy7n-59" style="edgeStyle=orthogonalEdgeStyle;rounded=0;orthogonalLoop=1;jettySize=auto;html=1;exitX=1;exitY=0.25;exitDx=0;exitDy=0;entryX=0;entryY=0.5;entryDx=0;entryDy=0;" edge="1" parent="eEMLUPJrMJkQv50nJy7n-1" source="eEMLUPJrMJkQv50nJy7n-55" target="eEMLUPJrMJkQv50nJy7n-60">
          <mxGeometry relative="1" as="geometry">
            <mxPoint x="1100" y="567.5" as="sourcePoint" />
          </mxGeometry>
        </mxCell>
        <mxCell id="eEMLUPJrMJkQv50nJy7n-60" value="GlossaryTerm" style="rounded=0;whiteSpace=wrap;html=1;fillColor=#d5e8d4;strokeColor=#82b366;" vertex="1" parent="eEMLUPJrMJkQv50nJy7n-1">
          <mxGeometry x="1100" y="480" width="100" height="40" as="geometry" />
        </mxCell>
        <mxCell id="eEMLUPJrMJkQv50nJy7n-61" value="DataClassDefinition" style="text;html=1;align=center;verticalAlign=middle;resizable=0;points=[];autosize=1;strokeColor=none;fillColor=none;" vertex="1" parent="eEMLUPJrMJkQv50nJy7n-1">
          <mxGeometry x="970" y="525" width="130" height="30" as="geometry" />
        </mxCell>
        <mxCell id="eEMLUPJrMJkQv50nJy7n-62" value="SemanticDefinition" style="text;html=1;align=center;verticalAlign=middle;resizable=0;points=[];autosize=1;strokeColor=none;fillColor=none;" vertex="1" parent="eEMLUPJrMJkQv50nJy7n-1">
          <mxGeometry x="975" y="470" width="120" height="30" as="geometry" />
        </mxCell>
        <mxCell id="eEMLUPJrMJkQv50nJy7n-63" value="DataField&lt;div&gt;angleLeft&lt;/div&gt;" style="rounded=0;whiteSpace=wrap;html=1;fillColor=#dae8fc;strokeColor=#6c8ebf;" vertex="1" parent="eEMLUPJrMJkQv50nJy7n-1">
          <mxGeometry x="796" y="619" width="120" height="60" as="geometry" />
        </mxCell>
        <mxCell id="eEMLUPJrMJkQv50nJy7n-64" style="edgeStyle=orthogonalEdgeStyle;rounded=0;orthogonalLoop=1;jettySize=auto;html=1;exitX=0.5;exitY=1;exitDx=0;exitDy=0;entryX=0;entryY=0.5;entryDx=0;entryDy=0;fillColor=#dae8fc;strokeColor=#6c8ebf;" edge="1" parent="eEMLUPJrMJkQv50nJy7n-1" source="eEMLUPJrMJkQv50nJy7n-21" target="eEMLUPJrMJkQv50nJy7n-63">
          <mxGeometry relative="1" as="geometry">
            <mxPoint x="763" y="559" as="sourcePoint" />
          </mxGeometry>
        </mxCell>
        <mxCell id="eEMLUPJrMJkQv50nJy7n-65" style="edgeStyle=orthogonalEdgeStyle;rounded=0;orthogonalLoop=1;jettySize=auto;html=1;entryX=0;entryY=0.5;entryDx=0;entryDy=0;exitX=1;exitY=0.75;exitDx=0;exitDy=0;" edge="1" parent="eEMLUPJrMJkQv50nJy7n-1" source="eEMLUPJrMJkQv50nJy7n-63" target="eEMLUPJrMJkQv50nJy7n-66">
          <mxGeometry relative="1" as="geometry">
            <mxPoint x="916" y="659" as="sourcePoint" />
          </mxGeometry>
        </mxCell>
        <mxCell id="eEMLUPJrMJkQv50nJy7n-66" value="DataClass" style="rounded=0;whiteSpace=wrap;html=1;fillColor=#e1d5e7;strokeColor=#9673a6;" vertex="1" parent="eEMLUPJrMJkQv50nJy7n-1">
          <mxGeometry x="1100" y="679" width="100" height="40" as="geometry" />
        </mxCell>
        <mxCell id="eEMLUPJrMJkQv50nJy7n-67" style="edgeStyle=orthogonalEdgeStyle;rounded=0;orthogonalLoop=1;jettySize=auto;html=1;exitX=1;exitY=0.25;exitDx=0;exitDy=0;entryX=0;entryY=0.5;entryDx=0;entryDy=0;" edge="1" parent="eEMLUPJrMJkQv50nJy7n-1" source="eEMLUPJrMJkQv50nJy7n-63" target="eEMLUPJrMJkQv50nJy7n-68">
          <mxGeometry relative="1" as="geometry">
            <mxPoint x="1100" y="676.5" as="sourcePoint" />
          </mxGeometry>
        </mxCell>
        <mxCell id="eEMLUPJrMJkQv50nJy7n-68" value="GlossaryTerm" style="rounded=0;whiteSpace=wrap;html=1;fillColor=#d5e8d4;strokeColor=#82b366;" vertex="1" parent="eEMLUPJrMJkQv50nJy7n-1">
          <mxGeometry x="1100" y="614" width="100" height="40" as="geometry" />
        </mxCell>
        <mxCell id="eEMLUPJrMJkQv50nJy7n-69" value="DataClassDefinition" style="text;html=1;align=center;verticalAlign=middle;resizable=0;points=[];autosize=1;strokeColor=none;fillColor=none;" vertex="1" parent="eEMLUPJrMJkQv50nJy7n-1">
          <mxGeometry x="880" y="684" width="130" height="30" as="geometry" />
        </mxCell>
        <mxCell id="eEMLUPJrMJkQv50nJy7n-70" value="SemanticDefinition" style="text;html=1;align=center;verticalAlign=middle;resizable=0;points=[];autosize=1;strokeColor=none;fillColor=none;" vertex="1" parent="eEMLUPJrMJkQv50nJy7n-1">
          <mxGeometry x="980" y="600" width="120" height="30" as="geometry" />
        </mxCell>
        <mxCell id="eEMLUPJrMJkQv50nJy7n-71" value="DataField&lt;div&gt;angleRight&lt;/div&gt;" style="rounded=0;whiteSpace=wrap;html=1;fillColor=#dae8fc;strokeColor=#6c8ebf;" vertex="1" parent="eEMLUPJrMJkQv50nJy7n-1">
          <mxGeometry x="796" y="730" width="120" height="60" as="geometry" />
        </mxCell>
        <mxCell id="eEMLUPJrMJkQv50nJy7n-72" style="edgeStyle=orthogonalEdgeStyle;rounded=0;orthogonalLoop=1;jettySize=auto;html=1;exitX=0.5;exitY=1;exitDx=0;exitDy=0;entryX=0;entryY=0.5;entryDx=0;entryDy=0;fillColor=#dae8fc;strokeColor=#6c8ebf;" edge="1" parent="eEMLUPJrMJkQv50nJy7n-1" source="eEMLUPJrMJkQv50nJy7n-21" target="eEMLUPJrMJkQv50nJy7n-71">
          <mxGeometry relative="1" as="geometry">
            <mxPoint x="763" y="670" as="sourcePoint" />
          </mxGeometry>
        </mxCell>
        <mxCell id="eEMLUPJrMJkQv50nJy7n-73" style="edgeStyle=orthogonalEdgeStyle;rounded=0;orthogonalLoop=1;jettySize=auto;html=1;entryX=0;entryY=0.5;entryDx=0;entryDy=0;exitX=1;exitY=0.25;exitDx=0;exitDy=0;" edge="1" parent="eEMLUPJrMJkQv50nJy7n-1" source="eEMLUPJrMJkQv50nJy7n-71" target="eEMLUPJrMJkQv50nJy7n-66">
          <mxGeometry relative="1" as="geometry">
            <mxPoint x="916" y="770" as="sourcePoint" />
          </mxGeometry>
        </mxCell>
        <mxCell id="eEMLUPJrMJkQv50nJy7n-74" style="edgeStyle=orthogonalEdgeStyle;rounded=0;orthogonalLoop=1;jettySize=auto;html=1;exitX=1;exitY=0.5;exitDx=0;exitDy=0;entryX=0;entryY=0.5;entryDx=0;entryDy=0;" edge="1" parent="eEMLUPJrMJkQv50nJy7n-1" source="eEMLUPJrMJkQv50nJy7n-71" target="eEMLUPJrMJkQv50nJy7n-75">
          <mxGeometry relative="1" as="geometry">
            <mxPoint x="1100" y="787.5" as="sourcePoint" />
          </mxGeometry>
        </mxCell>
        <mxCell id="eEMLUPJrMJkQv50nJy7n-75" value="GlossaryTerm" style="rounded=0;whiteSpace=wrap;html=1;fillColor=#d5e8d4;strokeColor=#82b366;" vertex="1" parent="eEMLUPJrMJkQv50nJy7n-1">
          <mxGeometry x="1100" y="740" width="100" height="40" as="geometry" />
        </mxCell>
        <mxCell id="eEMLUPJrMJkQv50nJy7n-76" value="SemanticDefinition" style="text;html=1;align=center;verticalAlign=middle;resizable=0;points=[];autosize=1;strokeColor=none;fillColor=none;" vertex="1" parent="eEMLUPJrMJkQv50nJy7n-1">
          <mxGeometry x="975" y="760" width="120" height="30" as="geometry" />
        </mxCell>
        <mxCell id="eEMLUPJrMJkQv50nJy7n-77" value="DataStructureDefinition" style="text;html=1;align=center;verticalAlign=middle;resizable=0;points=[];autosize=1;strokeColor=none;fillColor=none;" vertex="1" parent="eEMLUPJrMJkQv50nJy7n-1">
          <mxGeometry x="460" y="295" width="150" height="30" as="geometry" />
        </mxCell>
        <mxCell id="eEMLUPJrMJkQv50nJy7n-78" value="CSVFile" style="shape=internalStorage;whiteSpace=wrap;html=1;backgroundOutline=1;fillColor=#fff2cc;strokeColor=#d6b656;" vertex="1" parent="eEMLUPJrMJkQv50nJy7n-1">
          <mxGeometry x="350" y="445" width="80" height="80" as="geometry" />
        </mxCell>
        <mxCell id="eEMLUPJrMJkQv50nJy7n-79" style="edgeStyle=orthogonalEdgeStyle;rounded=0;orthogonalLoop=1;jettySize=auto;html=1;exitX=0.5;exitY=1;exitDx=0;exitDy=0;" edge="1" parent="eEMLUPJrMJkQv50nJy7n-1" source="eEMLUPJrMJkQv50nJy7n-48" target="eEMLUPJrMJkQv50nJy7n-80">
          <mxGeometry relative="1" as="geometry">
            <mxPoint x="338" y="365" as="sourcePoint" />
          </mxGeometry>
        </mxCell>
        <mxCell id="eEMLUPJrMJkQv50nJy7n-80" value="CSVFile" style="shape=internalStorage;whiteSpace=wrap;html=1;backgroundOutline=1;fillColor=#fff2cc;strokeColor=#d6b656;" vertex="1" parent="eEMLUPJrMJkQv50nJy7n-1">
          <mxGeometry x="360" y="455" width="80" height="80" as="geometry" />
        </mxCell>
        <mxCell id="eEMLUPJrMJkQv50nJy7n-81" style="edgeStyle=orthogonalEdgeStyle;rounded=0;orthogonalLoop=1;jettySize=auto;html=1;exitX=0.5;exitY=1;exitDx=0;exitDy=0;" edge="1" parent="eEMLUPJrMJkQv50nJy7n-1" source="eEMLUPJrMJkQv50nJy7n-48" target="eEMLUPJrMJkQv50nJy7n-82">
          <mxGeometry relative="1" as="geometry">
            <mxPoint x="348" y="375" as="sourcePoint" />
          </mxGeometry>
        </mxCell>
        <mxCell id="eEMLUPJrMJkQv50nJy7n-82" value="CSVFile" style="shape=internalStorage;whiteSpace=wrap;html=1;backgroundOutline=1;fillColor=#fff2cc;strokeColor=#d6b656;" vertex="1" parent="eEMLUPJrMJkQv50nJy7n-1">
          <mxGeometry x="370" y="465" width="80" height="80" as="geometry" />
        </mxCell>
        <mxCell id="eEMLUPJrMJkQv50nJy7n-83" style="edgeStyle=orthogonalEdgeStyle;rounded=0;orthogonalLoop=1;jettySize=auto;html=1;exitX=0.5;exitY=1;exitDx=0;exitDy=0;" edge="1" parent="eEMLUPJrMJkQv50nJy7n-1" source="eEMLUPJrMJkQv50nJy7n-48" target="eEMLUPJrMJkQv50nJy7n-84">
          <mxGeometry relative="1" as="geometry">
            <mxPoint x="358" y="385" as="sourcePoint" />
          </mxGeometry>
        </mxCell>
        <mxCell id="eEMLUPJrMJkQv50nJy7n-84" value="CSVFile" style="shape=internalStorage;whiteSpace=wrap;html=1;backgroundOutline=1;fillColor=#fff2cc;strokeColor=#d6b656;" vertex="1" parent="eEMLUPJrMJkQv50nJy7n-1">
          <mxGeometry x="380" y="475" width="80" height="80" as="geometry" />
        </mxCell>
        <mxCell id="eEMLUPJrMJkQv50nJy7n-85" style="edgeStyle=orthogonalEdgeStyle;rounded=0;orthogonalLoop=1;jettySize=auto;html=1;exitX=0.5;exitY=1;exitDx=0;exitDy=0;" edge="1" parent="eEMLUPJrMJkQv50nJy7n-1" source="eEMLUPJrMJkQv50nJy7n-48" target="eEMLUPJrMJkQv50nJy7n-86">
          <mxGeometry relative="1" as="geometry">
            <mxPoint x="368" y="395" as="sourcePoint" />
          </mxGeometry>
        </mxCell>
        <mxCell id="eEMLUPJrMJkQv50nJy7n-86" value="CSVFile" style="shape=internalStorage;whiteSpace=wrap;html=1;backgroundOutline=1;fillColor=#fff2cc;strokeColor=#d6b656;" vertex="1" parent="eEMLUPJrMJkQv50nJy7n-1">
          <mxGeometry x="390" y="485" width="80" height="80" as="geometry" />
        </mxCell>
        <mxCell id="eEMLUPJrMJkQv50nJy7n-87" value="Certification" style="text;html=1;align=center;verticalAlign=middle;resizable=0;points=[];autosize=1;strokeColor=none;fillColor=none;" vertex="1" parent="eEMLUPJrMJkQv50nJy7n-1">
          <mxGeometry x="380" y="373" width="90" height="30" as="geometry" />
        </mxCell>
        <mxCell id="eJ3Q5zME1RGuLYwWdM7q-4" value="" style="edgeStyle=orthogonalEdgeStyle;rounded=0;orthogonalLoop=1;jettySize=auto;html=1;fillColor=#dae8fc;strokeColor=#6c8ebf;dashed=1;" edge="1" parent="eEMLUPJrMJkQv50nJy7n-1" source="eJ3Q5zME1RGuLYwWdM7q-1">
          <mxGeometry relative="1" as="geometry">
            <mxPoint x="903" y="210" as="targetPoint" />
          </mxGeometry>
        </mxCell>
        <mxCell id="eJ3Q5zME1RGuLYwWdM7q-1" value="DataStructure&lt;div&gt;Patient Record&lt;/div&gt;" style="whiteSpace=wrap;html=1;fillColor=#dae8fc;strokeColor=#6c8ebf;rounded=0;" vertex="1" parent="eEMLUPJrMJkQv50nJy7n-1">
          <mxGeometry x="703" y="180" width="120" height="60" as="geometry" />
        </mxCell>
        <mxCell id="eJ3Q5zME1RGuLYwWdM7q-6" style="edgeStyle=orthogonalEdgeStyle;rounded=0;orthogonalLoop=1;jettySize=auto;html=1;exitX=0.5;exitY=1;exitDx=0;exitDy=0;entryX=0;entryY=0.25;entryDx=0;entryDy=0;" edge="1" parent="eEMLUPJrMJkQv50nJy7n-1" source="eJ3Q5zME1RGuLYwWdM7q-5" target="eEMLUPJrMJkQv50nJy7n-48">
          <mxGeometry relative="1" as="geometry" />
        </mxCell>
        <mxCell id="eJ3Q5zME1RGuLYwWdM7q-8" style="edgeStyle=orthogonalEdgeStyle;rounded=0;orthogonalLoop=1;jettySize=auto;html=1;exitX=0.25;exitY=1;exitDx=0;exitDy=0;entryX=0.5;entryY=0;entryDx=0;entryDy=0;" edge="1" parent="eEMLUPJrMJkQv50nJy7n-1" source="eJ3Q5zME1RGuLYwWdM7q-5" target="eJ3Q5zME1RGuLYwWdM7q-10">
          <mxGeometry relative="1" as="geometry" />
        </mxCell>
        <mxCell id="eJ3Q5zME1RGuLYwWdM7q-5" value="DataStructureValidator&lt;div&gt;&lt;br&gt;&lt;/div&gt;&lt;div&gt;Survey Action&lt;/div&gt;&lt;div&gt;Service&lt;/div&gt;" style="rounded=1;whiteSpace=wrap;html=1;fillColor=#ffe6cc;strokeColor=#d79b00;" vertex="1" parent="eEMLUPJrMJkQv50nJy7n-1">
          <mxGeometry x="140" y="140" width="200" height="90" as="geometry" />
        </mxCell>
        <mxCell id="eJ3Q5zME1RGuLYwWdM7q-7" value="ActionTarget" style="text;html=1;align=center;verticalAlign=middle;resizable=0;points=[];autosize=1;strokeColor=none;fillColor=none;" vertex="1" parent="eEMLUPJrMJkQv50nJy7n-1">
          <mxGeometry x="240" y="230" width="90" height="30" as="geometry" />
        </mxCell>
        <mxCell id="eJ3Q5zME1RGuLYwWdM7q-9" value="ActonTarget" style="text;html=1;align=center;verticalAlign=middle;resizable=0;points=[];autosize=1;strokeColor=none;fillColor=none;" vertex="1" parent="eEMLUPJrMJkQv50nJy7n-1">
          <mxGeometry x="100" y="230" width="90" height="30" as="geometry" />
        </mxCell>
        <mxCell id="IHd1xdkUZ5-W0mvQYXj7-1" style="edgeStyle=orthogonalEdgeStyle;rounded=0;orthogonalLoop=1;jettySize=auto;html=1;exitX=0.5;exitY=1;exitDx=0;exitDy=0;entryX=0.5;entryY=0;entryDx=0;entryDy=0;" edge="1" parent="eEMLUPJrMJkQv50nJy7n-1" source="eJ3Q5zME1RGuLYwWdM7q-10" target="IHd1xdkUZ5-W0mvQYXj7-0">
          <mxGeometry relative="1" as="geometry" />
        </mxCell>
        <mxCell id="eJ3Q5zME1RGuLYwWdM7q-10" value="CSVFile" style="shape=internalStorage;whiteSpace=wrap;html=1;backgroundOutline=1;fillColor=#fff2cc;strokeColor=#d6b656;" vertex="1" parent="eEMLUPJrMJkQv50nJy7n-1">
          <mxGeometry x="150" y="420" width="80" height="80" as="geometry" />
        </mxCell>
        <mxCell id="eJ3Q5zME1RGuLYwWdM7q-11" style="edgeStyle=orthogonalEdgeStyle;rounded=0;orthogonalLoop=1;jettySize=auto;html=1;exitX=0;exitY=0.75;exitDx=0;exitDy=0;entryX=1.013;entryY=0.413;entryDx=0;entryDy=0;entryPerimeter=0;dashed=1;" edge="1" parent="eEMLUPJrMJkQv50nJy7n-1" source="eEMLUPJrMJkQv50nJy7n-48" target="eJ3Q5zME1RGuLYwWdM7q-10">
          <mxGeometry relative="1" as="geometry" />
        </mxCell>
        <mxCell id="eJ3Q5zME1RGuLYwWdM7q-12" value="?" style="text;html=1;align=center;verticalAlign=middle;resizable=0;points=[];autosize=1;strokeColor=none;fillColor=none;" vertex="1" parent="eEMLUPJrMJkQv50nJy7n-1">
          <mxGeometry x="225" y="378" width="30" height="30" as="geometry" />
        </mxCell>
        <mxCell id="IHd1xdkUZ5-W0mvQYXj7-0" value="Tabular&lt;div&gt;SchemaType&lt;/div&gt;" style="rounded=0;whiteSpace=wrap;html=1;fillColor=#e1d5e7;strokeColor=#9673a6;" vertex="1" parent="eEMLUPJrMJkQv50nJy7n-1">
          <mxGeometry x="145" y="565" width="90" height="60" as="geometry" />
        </mxCell>
        <mxCell id="IHd1xdkUZ5-W0mvQYXj7-2" value="Tabular&lt;div&gt;Column&lt;/div&gt;" style="rounded=0;whiteSpace=wrap;html=1;fillColor=#e1d5e7;strokeColor=#9673a6;" vertex="1" parent="eEMLUPJrMJkQv50nJy7n-1">
          <mxGeometry x="250" y="630" width="90" height="60" as="geometry" />
        </mxCell>
        <mxCell id="IHd1xdkUZ5-W0mvQYXj7-5" value="Tabular&lt;div&gt;Column&lt;/div&gt;" style="rounded=0;whiteSpace=wrap;html=1;fillColor=#e1d5e7;strokeColor=#9673a6;" vertex="1" parent="eEMLUPJrMJkQv50nJy7n-1">
          <mxGeometry x="260" y="640" width="90" height="60" as="geometry" />
        </mxCell>
        <mxCell id="IHd1xdkUZ5-W0mvQYXj7-6" value="Tabular&lt;div&gt;Column&lt;/div&gt;" style="rounded=0;whiteSpace=wrap;html=1;fillColor=#e1d5e7;strokeColor=#9673a6;" vertex="1" parent="eEMLUPJrMJkQv50nJy7n-1">
          <mxGeometry x="270" y="650" width="90" height="60" as="geometry" />
        </mxCell>
        <mxCell id="IHd1xdkUZ5-W0mvQYXj7-7" value="Tabular&lt;div&gt;Column&lt;/div&gt;" style="rounded=0;whiteSpace=wrap;html=1;fillColor=#e1d5e7;strokeColor=#9673a6;" vertex="1" parent="eEMLUPJrMJkQv50nJy7n-1">
          <mxGeometry x="280" y="660" width="90" height="60" as="geometry" />
        </mxCell>
        <mxCell id="IHd1xdkUZ5-W0mvQYXj7-4" style="edgeStyle=orthogonalEdgeStyle;rounded=0;orthogonalLoop=1;jettySize=auto;html=1;exitX=0.5;exitY=1;exitDx=0;exitDy=0;fillColor=#e1d5e7;strokeColor=#9673a6;entryX=0;entryY=0.5;entryDx=0;entryDy=0;" edge="1" parent="eEMLUPJrMJkQv50nJy7n-1" source="IHd1xdkUZ5-W0mvQYXj7-0" target="IHd1xdkUZ5-W0mvQYXj7-2">
          <mxGeometry relative="1" as="geometry">
            <mxPoint x="330" y="630" as="sourcePoint" />
          </mxGeometry>
        </mxCell>
        <mxCell id="IHd1xdkUZ5-W0mvQYXj7-8" style="edgeStyle=orthogonalEdgeStyle;rounded=0;orthogonalLoop=1;jettySize=auto;html=1;exitX=0.5;exitY=1;exitDx=0;exitDy=0;entryX=0;entryY=0.5;entryDx=0;entryDy=0;fillColor=#e1d5e7;strokeColor=#9673a6;" edge="1" parent="eEMLUPJrMJkQv50nJy7n-1" source="IHd1xdkUZ5-W0mvQYXj7-0" target="IHd1xdkUZ5-W0mvQYXj7-5">
          <mxGeometry relative="1" as="geometry" />
        </mxCell>
        <mxCell id="IHd1xdkUZ5-W0mvQYXj7-9" style="edgeStyle=orthogonalEdgeStyle;rounded=0;orthogonalLoop=1;jettySize=auto;html=1;exitX=0.5;exitY=1;exitDx=0;exitDy=0;entryX=0;entryY=0.5;entryDx=0;entryDy=0;fillColor=#e1d5e7;strokeColor=#9673a6;" edge="1" parent="eEMLUPJrMJkQv50nJy7n-1" source="IHd1xdkUZ5-W0mvQYXj7-0" target="IHd1xdkUZ5-W0mvQYXj7-6">
          <mxGeometry relative="1" as="geometry" />
        </mxCell>
        <mxCell id="IHd1xdkUZ5-W0mvQYXj7-10" style="edgeStyle=orthogonalEdgeStyle;rounded=0;orthogonalLoop=1;jettySize=auto;html=1;exitX=0.5;exitY=1;exitDx=0;exitDy=0;entryX=0;entryY=0.5;entryDx=0;entryDy=0;fillColor=#e1d5e7;strokeColor=#9673a6;" edge="1" parent="eEMLUPJrMJkQv50nJy7n-1" source="IHd1xdkUZ5-W0mvQYXj7-0" target="IHd1xdkUZ5-W0mvQYXj7-7">
          <mxGeometry relative="1" as="geometry" />
        </mxCell>
      </root>
    </mxGraphModel>
  </diagram>
  <diagram id="nI0gCaWQw37oetxQPzmT" name="data-quality">
    <mxGraphModel dx="4293" dy="1056" grid="1" gridSize="10" guides="1" tooltips="1" connect="1" arrows="1" fold="1" page="1" pageScale="1" pageWidth="827" pageHeight="1169" math="0" shadow="0">
      <root>
        <mxCell id="0" />
        <mxCell id="1" parent="0" />
        <mxCell id="tLbs7HqH0uqqFZOekzvu-1" value="DataClass" style="rounded=0;whiteSpace=wrap;html=1;fontStyle=2;fillColor=#e1d5e7;strokeColor=#9673a6;" vertex="1" parent="1">
          <mxGeometry x="-300" y="230" width="120" height="30" as="geometry" />
        </mxCell>
        <mxCell id="tLbs7HqH0uqqFZOekzvu-2" value="displayName : Angles&lt;div&gt;dataType : int&lt;div&gt;valueRangeFrom : -90&lt;div&gt;valueRangeTo : +90&lt;/div&gt;&lt;/div&gt;&lt;/div&gt;" style="rounded=0;whiteSpace=wrap;html=1;align=left;spacingLeft=6;fillColor=#e1d5e7;strokeColor=#9673a6;" vertex="1" parent="1">
          <mxGeometry x="-300" y="260" width="170" height="80" as="geometry" />
        </mxCell>
        <mxCell id="tLbs7HqH0uqqFZOekzvu-3" value="DataClass" style="rounded=0;whiteSpace=wrap;html=1;fontStyle=2;fillColor=#e1d5e7;strokeColor=#9673a6;" vertex="1" parent="1">
          <mxGeometry x="414" y="230" width="120" height="30" as="geometry" />
        </mxCell>
        <mxCell id="tLbs7HqH0uqqFZOekzvu-4" value="displayName : Colours&lt;div&gt;dataType : string&lt;div&gt;valueList : [ red, yellow, green, purple, white, blue, orange ]&lt;/div&gt;&lt;/div&gt;" style="rounded=0;whiteSpace=wrap;html=1;align=left;spacingLeft=6;fillColor=#e1d5e7;strokeColor=#9673a6;" vertex="1" parent="1">
          <mxGeometry x="414" y="260" width="356" height="80" as="geometry" />
        </mxCell>
        <mxCell id="tLbs7HqH0uqqFZOekzvu-5" value="DataClass" style="rounded=0;whiteSpace=wrap;html=1;fontStyle=2;fillColor=#e1d5e7;strokeColor=#9673a6;" vertex="1" parent="1">
          <mxGeometry x="414" y="370" width="120" height="30" as="geometry" />
        </mxCell>
        <mxCell id="tLbs7HqH0uqqFZOekzvu-8" value="" style="edgeStyle=orthogonalEdgeStyle;rounded=0;orthogonalLoop=1;jettySize=auto;html=1;" edge="1" parent="1" source="tLbs7HqH0uqqFZOekzvu-6" target="tLbs7HqH0uqqFZOekzvu-7">
          <mxGeometry relative="1" as="geometry" />
        </mxCell>
        <mxCell id="tLbs7HqH0uqqFZOekzvu-6" value="dataType : string" style="rounded=0;whiteSpace=wrap;html=1;align=left;spacingLeft=6;fillColor=#e1d5e7;strokeColor=#9673a6;" vertex="1" parent="1">
          <mxGeometry x="414" y="400" width="266" height="60" as="geometry" />
        </mxCell>
        <mxCell id="tLbs7HqH0uqqFZOekzvu-7" value="ValidValueSet" style="whiteSpace=wrap;html=1;align=center;fillColor=#e1d5e7;strokeColor=#9673a6;rounded=0;spacingLeft=6;" vertex="1" parent="1">
          <mxGeometry x="830" y="400" width="120" height="60" as="geometry" />
        </mxCell>
        <mxCell id="tLbs7HqH0uqqFZOekzvu-9" value="ValidValuesAssignment" style="text;html=1;align=center;verticalAlign=middle;resizable=0;points=[];autosize=1;strokeColor=none;fillColor=none;" vertex="1" parent="1">
          <mxGeometry x="680" y="400" width="150" height="30" as="geometry" />
        </mxCell>
        <mxCell id="tLbs7HqH0uqqFZOekzvu-10" value="DataClass" style="rounded=0;whiteSpace=wrap;html=1;fontStyle=2;fillColor=#e1d5e7;strokeColor=#9673a6;" vertex="1" parent="1">
          <mxGeometry x="-40" y="230" width="120" height="30" as="geometry" />
        </mxCell>
        <mxCell id="tLbs7HqH0uqqFZOekzvu-11" value="displayName : Credit card numbers&lt;div&gt;dataType : string&lt;div&gt;dataPatterns : [&amp;nbsp;&lt;/div&gt;&lt;div&gt;&lt;code&gt;&quot;^(?:4[0-9]{12}(?:[0-9]{3})?|5[1-5][0-9]{14})$&quot;&lt;/code&gt;,&amp;nbsp;&lt;/div&gt;&lt;div&gt;&lt;span style=&quot;background-color: transparent; color: light-dark(rgb(0, 0, 0), rgb(255, 255, 255));&quot;&gt;&quot;^4[0-9]{12}(?:[0-9]{3})?$&quot;&lt;/span&gt;,&lt;/div&gt;&lt;div&gt;&lt;span style=&quot;background-color: transparent; color: light-dark(rgb(0, 0, 0), rgb(255, 255, 255));&quot;&gt;&quot;^3[47][0-9]{13}$&quot;&lt;/span&gt;&lt;span style=&quot;background-color: transparent; color: light-dark(rgb(0, 0, 0), rgb(255, 255, 255));&quot;&gt;&amp;nbsp;]&lt;/span&gt;&lt;/div&gt;&lt;/div&gt;" style="rounded=0;whiteSpace=wrap;html=1;align=left;spacingLeft=6;fillColor=#e1d5e7;strokeColor=#9673a6;" vertex="1" parent="1">
          <mxGeometry x="-40" y="260" width="380" height="110" as="geometry" />
        </mxCell>
        <mxCell id="tLbs7HqH0uqqFZOekzvu-12" value="" style="shape=internalStorage;whiteSpace=wrap;html=1;backgroundOutline=1;fillColor=#d5e8d4;strokeColor=#82b366;sketch=1;curveFitting=1;jiggle=2;" vertex="1" parent="1">
          <mxGeometry x="-290" y="700" width="130" height="190" as="geometry" />
        </mxCell>
        <mxCell id="tLbs7HqH0uqqFZOekzvu-13" value="red&lt;div&gt;purple&lt;/div&gt;&lt;div&gt;pink&lt;/div&gt;&lt;div&gt;brown&lt;/div&gt;&lt;div&gt;blue&lt;/div&gt;&lt;div&gt;&lt;b&gt;null&lt;/b&gt;&lt;/div&gt;&lt;div&gt;yellow&lt;/div&gt;&lt;div&gt;white&lt;/div&gt;&lt;div&gt;green&lt;/div&gt;&lt;div&gt;orange&lt;/div&gt;" style="text;html=1;align=center;verticalAlign=middle;resizable=0;points=[];autosize=1;strokeColor=none;fillColor=none;" vertex="1" parent="1">
          <mxGeometry x="-255" y="720" width="60" height="160" as="geometry" />
        </mxCell>
        <mxCell id="tLbs7HqH0uqqFZOekzvu-14" value="colour" style="text;html=1;align=center;verticalAlign=middle;resizable=0;points=[];autosize=1;strokeColor=none;fillColor=none;" vertex="1" parent="1">
          <mxGeometry x="-255" y="690" width="60" height="30" as="geometry" />
        </mxCell>
        <mxCell id="tLbs7HqH0uqqFZOekzvu-15" value="DataClass" style="rounded=0;whiteSpace=wrap;html=1;fontStyle=2;fillColor=#e1d5e7;strokeColor=#9673a6;" vertex="1" parent="1">
          <mxGeometry x="-70" y="670" width="120" height="30" as="geometry" />
        </mxCell>
        <mxCell id="tLbs7HqH0uqqFZOekzvu-16" value="dataType : string&lt;div&gt;valueList : [ red, yellow, green, purple, white, blue, orange, pink, black, brown ]&lt;/div&gt;&lt;div&gt;matchThreshold : 100&lt;/div&gt;&lt;div&gt;allowDuplicateValues: false&lt;/div&gt;&lt;div&gt;isNullable : true&lt;/div&gt;&lt;div&gt;defaultValue : red&lt;/div&gt;" style="rounded=0;whiteSpace=wrap;html=1;align=left;spacingLeft=6;fillColor=#e1d5e7;strokeColor=#9673a6;" vertex="1" parent="1">
          <mxGeometry x="-70" y="700" width="450" height="110" as="geometry" />
        </mxCell>
        <mxCell id="tLbs7HqH0uqqFZOekzvu-17" value="Number Range" style="text;html=1;align=center;verticalAlign=middle;resizable=0;points=[];autosize=1;strokeColor=none;fillColor=none;" vertex="1" parent="1">
          <mxGeometry x="-280" y="138" width="100" height="30" as="geometry" />
        </mxCell>
        <mxCell id="tLbs7HqH0uqqFZOekzvu-18" value="Regular Expressions" style="text;html=1;align=center;verticalAlign=middle;resizable=0;points=[];autosize=1;strokeColor=none;fillColor=none;" vertex="1" parent="1">
          <mxGeometry x="-45" y="138" width="130" height="30" as="geometry" />
        </mxCell>
        <mxCell id="tLbs7HqH0uqqFZOekzvu-19" value="Valid Value List" style="text;html=1;align=center;verticalAlign=middle;resizable=0;points=[];autosize=1;strokeColor=none;fillColor=none;" vertex="1" parent="1">
          <mxGeometry x="415" y="138" width="100" height="30" as="geometry" />
        </mxCell>
        <mxCell id="tLbs7HqH0uqqFZOekzvu-20" value="DataClass" style="rounded=0;whiteSpace=wrap;html=1;fontStyle=2;fillColor=#e1d5e7;strokeColor=#9673a6;" vertex="1" parent="1">
          <mxGeometry x="-70" y="850" width="120" height="30" as="geometry" />
        </mxCell>
        <mxCell id="tLbs7HqH0uqqFZOekzvu-21" value="dataType : string&lt;div&gt;valueList : [ red, yellow, green, purple, white, blue, orange, pink, black, brown ]&lt;/div&gt;&lt;div&gt;matchThreshold : 90&lt;/div&gt;&lt;div&gt;allowDuplicateValues: true&lt;/div&gt;&lt;div&gt;isNullable : true&lt;/div&gt;&lt;div&gt;defaultValue : red&lt;/div&gt;" style="rounded=0;whiteSpace=wrap;html=1;align=left;spacingLeft=6;fillColor=#e1d5e7;strokeColor=#9673a6;" vertex="1" parent="1">
          <mxGeometry x="-70" y="880" width="450" height="110" as="geometry" />
        </mxCell>
        <mxCell id="tLbs7HqH0uqqFZOekzvu-22" value="Matching" style="text;html=1;align=center;verticalAlign=middle;resizable=0;points=[];autosize=1;strokeColor=none;fillColor=none;" vertex="1" parent="1">
          <mxGeometry x="-290" y="560" width="70" height="30" as="geometry" />
        </mxCell>
        <mxCell id="jIkOwFa-Xwc2veAo_FL5-3" value="DataClassDefinition" style="text;html=1;align=center;verticalAlign=middle;resizable=0;points=[];autosize=1;strokeColor=none;fillColor=none;" vertex="1" parent="1">
          <mxGeometry x="-1032.5" y="520" width="130" height="30" as="geometry" />
        </mxCell>
        <mxCell id="jIkOwFa-Xwc2veAo_FL5-4" value="&lt;div&gt;displayName : angleRight&lt;/div&gt;&lt;div&gt;aliases : [Angle Right, AngleRight, RightLeg, Right]&lt;/div&gt;&lt;div&gt;namePatterns : []&lt;/div&gt;" style="rounded=0;whiteSpace=wrap;html=1;fillColor=#dae8fc;strokeColor=#6c8ebf;align=left;" vertex="1" parent="1">
          <mxGeometry x="-1332.5" y="520" width="300" height="60" as="geometry" />
        </mxCell>
        <mxCell id="jIkOwFa-Xwc2veAo_FL5-5" style="edgeStyle=orthogonalEdgeStyle;rounded=0;orthogonalLoop=1;jettySize=auto;html=1;entryX=0;entryY=0.5;entryDx=0;entryDy=0;exitX=1;exitY=0.5;exitDx=0;exitDy=0;" edge="1" parent="1" source="jIkOwFa-Xwc2veAo_FL5-4" target="jIkOwFa-Xwc2veAo_FL5-19">
          <mxGeometry relative="1" as="geometry">
            <mxPoint x="-1056.5" y="560" as="sourcePoint" />
            <mxPoint x="-872.5" y="489" as="targetPoint" />
          </mxGeometry>
        </mxCell>
        <mxCell id="jIkOwFa-Xwc2veAo_FL5-9" value="Tabular&lt;div&gt;Column&lt;/div&gt;" style="rounded=0;whiteSpace=wrap;html=1;fillColor=#e1d5e7;strokeColor=#9673a6;" vertex="1" parent="1">
          <mxGeometry x="-1642.5" y="530" width="90" height="60" as="geometry" />
        </mxCell>
        <mxCell id="jIkOwFa-Xwc2veAo_FL5-10" value="" style="shape=flexArrow;endArrow=classic;html=1;rounded=0;" edge="1" parent="1">
          <mxGeometry width="50" height="50" relative="1" as="geometry">
            <mxPoint x="-1382.5" y="751" as="sourcePoint" />
            <mxPoint x="-1542.5" y="610" as="targetPoint" />
          </mxGeometry>
        </mxCell>
        <mxCell id="jIkOwFa-Xwc2veAo_FL5-11" value="displayName&lt;div&gt;aliases&lt;/div&gt;" style="text;html=1;align=center;verticalAlign=middle;resizable=0;points=[];autosize=1;strokeColor=none;fillColor=none;" vertex="1" parent="1">
          <mxGeometry x="-1647.5" y="623" width="90" height="40" as="geometry" />
        </mxCell>
        <mxCell id="jIkOwFa-Xwc2veAo_FL5-12" value="" style="shape=flexArrow;endArrow=classic;html=1;rounded=0;" edge="1" parent="1">
          <mxGeometry width="50" height="50" relative="1" as="geometry">
            <mxPoint x="-1362.5" y="750" as="sourcePoint" />
            <mxPoint x="-1172.5" y="600" as="targetPoint" />
          </mxGeometry>
        </mxCell>
        <mxCell id="jIkOwFa-Xwc2veAo_FL5-13" value="displayName&lt;div&gt;aliases&lt;/div&gt;" style="text;html=1;align=center;verticalAlign=middle;resizable=0;points=[];autosize=1;strokeColor=none;fillColor=none;" vertex="1" parent="1">
          <mxGeometry x="-1332.5" y="610" width="90" height="40" as="geometry" />
        </mxCell>
        <mxCell id="jIkOwFa-Xwc2veAo_FL5-15" value="Name matching" style="text;html=1;align=center;verticalAlign=middle;resizable=0;points=[];autosize=1;strokeColor=none;fillColor=none;fontStyle=1" vertex="1" parent="1">
          <mxGeometry x="-1422.5" y="770" width="110" height="30" as="geometry" />
        </mxCell>
        <mxCell id="jIkOwFa-Xwc2veAo_FL5-18" value="DataClass" style="rounded=0;whiteSpace=wrap;html=1;fontStyle=2;fillColor=#e1d5e7;strokeColor=#9673a6;" vertex="1" parent="1">
          <mxGeometry x="-905.5" y="473" width="120" height="30" as="geometry" />
        </mxCell>
        <mxCell id="jIkOwFa-Xwc2veAo_FL5-19" value="displayName : Angles&lt;div&gt;dataType : int&lt;div&gt;valueRangeFrom : -90&lt;div&gt;valueRangeTo : +90&lt;/div&gt;&lt;/div&gt;&lt;/div&gt;" style="rounded=0;whiteSpace=wrap;html=1;align=left;spacingLeft=6;fillColor=#e1d5e7;strokeColor=#9673a6;" vertex="1" parent="1">
          <mxGeometry x="-905.5" y="503" width="200" height="95" as="geometry" />
        </mxCell>
        <mxCell id="jIkOwFa-Xwc2veAo_FL5-20" value="DataField" style="rounded=0;whiteSpace=wrap;html=1;fontStyle=2;fillColor=#dae8fc;strokeColor=#6c8ebf;" vertex="1" parent="1">
          <mxGeometry x="-1332.5" y="490" width="120" height="30" as="geometry" />
        </mxCell>
        <mxCell id="jIkOwFa-Xwc2veAo_FL5-21" value="namePatterns" style="text;html=1;align=center;verticalAlign=middle;resizable=0;points=[];autosize=1;strokeColor=none;fillColor=none;" vertex="1" parent="1">
          <mxGeometry x="-1382.5" y="650" width="100" height="30" as="geometry" />
        </mxCell>
        <mxCell id="yydS8zmu6SzMnZmOiDiz-1" value="Tabular&lt;div&gt;SchemaType&lt;/div&gt;" style="rounded=0;whiteSpace=wrap;html=1;fillColor=#e1d5e7;strokeColor=#9673a6;" vertex="1" parent="1">
          <mxGeometry x="-1760" y="230" width="90" height="60" as="geometry" />
        </mxCell>
        <mxCell id="yydS8zmu6SzMnZmOiDiz-2" value="Tabular&lt;div&gt;Column&lt;/div&gt;" style="rounded=0;whiteSpace=wrap;html=1;fillColor=#e1d5e7;strokeColor=#9673a6;" vertex="1" parent="1">
          <mxGeometry x="-1655" y="295" width="90" height="60" as="geometry" />
        </mxCell>
        <mxCell id="yydS8zmu6SzMnZmOiDiz-3" value="Tabular&lt;div&gt;Column&lt;/div&gt;" style="rounded=0;whiteSpace=wrap;html=1;fillColor=#e1d5e7;strokeColor=#9673a6;" vertex="1" parent="1">
          <mxGeometry x="-1645" y="305" width="90" height="60" as="geometry" />
        </mxCell>
        <mxCell id="yydS8zmu6SzMnZmOiDiz-4" value="Tabular&lt;div&gt;Column&lt;/div&gt;" style="rounded=0;whiteSpace=wrap;html=1;fillColor=#e1d5e7;strokeColor=#9673a6;" vertex="1" parent="1">
          <mxGeometry x="-1635" y="315" width="90" height="60" as="geometry" />
        </mxCell>
        <mxCell id="yydS8zmu6SzMnZmOiDiz-5" value="Tabular&lt;div&gt;Column&lt;/div&gt;&lt;div&gt;position : 0&lt;/div&gt;" style="rounded=0;whiteSpace=wrap;html=1;fillColor=#e1d5e7;strokeColor=#9673a6;" vertex="1" parent="1">
          <mxGeometry x="-1625" y="325" width="90" height="60" as="geometry" />
        </mxCell>
        <mxCell id="yydS8zmu6SzMnZmOiDiz-6" style="edgeStyle=orthogonalEdgeStyle;rounded=0;orthogonalLoop=1;jettySize=auto;html=1;exitX=0.5;exitY=1;exitDx=0;exitDy=0;fillColor=#e1d5e7;strokeColor=#9673a6;entryX=0;entryY=0.5;entryDx=0;entryDy=0;" edge="1" parent="1" source="yydS8zmu6SzMnZmOiDiz-1" target="yydS8zmu6SzMnZmOiDiz-2">
          <mxGeometry relative="1" as="geometry">
            <mxPoint x="-1575" y="295" as="sourcePoint" />
          </mxGeometry>
        </mxCell>
        <mxCell id="yydS8zmu6SzMnZmOiDiz-7" style="edgeStyle=orthogonalEdgeStyle;rounded=0;orthogonalLoop=1;jettySize=auto;html=1;exitX=0.5;exitY=1;exitDx=0;exitDy=0;entryX=0;entryY=0.5;entryDx=0;entryDy=0;fillColor=#e1d5e7;strokeColor=#9673a6;" edge="1" parent="1" source="yydS8zmu6SzMnZmOiDiz-1" target="yydS8zmu6SzMnZmOiDiz-3">
          <mxGeometry relative="1" as="geometry" />
        </mxCell>
        <mxCell id="yydS8zmu6SzMnZmOiDiz-8" style="edgeStyle=orthogonalEdgeStyle;rounded=0;orthogonalLoop=1;jettySize=auto;html=1;exitX=0.5;exitY=1;exitDx=0;exitDy=0;entryX=0;entryY=0.5;entryDx=0;entryDy=0;fillColor=#e1d5e7;strokeColor=#9673a6;" edge="1" parent="1" source="yydS8zmu6SzMnZmOiDiz-1" target="yydS8zmu6SzMnZmOiDiz-4">
          <mxGeometry relative="1" as="geometry" />
        </mxCell>
        <mxCell id="yydS8zmu6SzMnZmOiDiz-9" style="edgeStyle=orthogonalEdgeStyle;rounded=0;orthogonalLoop=1;jettySize=auto;html=1;exitX=0.5;exitY=1;exitDx=0;exitDy=0;entryX=0;entryY=0.5;entryDx=0;entryDy=0;fillColor=#e1d5e7;strokeColor=#9673a6;" edge="1" parent="1" source="yydS8zmu6SzMnZmOiDiz-1" target="yydS8zmu6SzMnZmOiDiz-5">
          <mxGeometry relative="1" as="geometry" />
        </mxCell>
        <mxCell id="Glt7ink88-u7oXzEJ7SF-1" value="DataStructure" style="rounded=0;whiteSpace=wrap;html=1;fillColor=#dae8fc;strokeColor=#6c8ebf;" vertex="1" parent="1">
          <mxGeometry x="-1492.5" y="170" width="120" height="60" as="geometry" />
        </mxCell>
        <mxCell id="Glt7ink88-u7oXzEJ7SF-2" value="DataField" style="rounded=0;whiteSpace=wrap;html=1;fillColor=#dae8fc;strokeColor=#6c8ebf;" vertex="1" parent="1">
          <mxGeometry x="-1292.5" y="270" width="120" height="60" as="geometry" />
        </mxCell>
        <mxCell id="Glt7ink88-u7oXzEJ7SF-3" style="edgeStyle=orthogonalEdgeStyle;rounded=0;orthogonalLoop=1;jettySize=auto;html=1;entryX=0;entryY=0.5;entryDx=0;entryDy=0;fillColor=#dae8fc;strokeColor=#6c8ebf;exitX=0.5;exitY=1;exitDx=0;exitDy=0;" edge="1" parent="1" source="Glt7ink88-u7oXzEJ7SF-1" target="Glt7ink88-u7oXzEJ7SF-2">
          <mxGeometry relative="1" as="geometry">
            <mxPoint x="-1345.5" y="260" as="sourcePoint" />
          </mxGeometry>
        </mxCell>
        <mxCell id="Glt7ink88-u7oXzEJ7SF-4" value="DataField" style="rounded=0;whiteSpace=wrap;html=1;fillColor=#dae8fc;strokeColor=#6c8ebf;" vertex="1" parent="1">
          <mxGeometry x="-1292.5" y="339" width="120" height="60" as="geometry" />
        </mxCell>
        <mxCell id="Glt7ink88-u7oXzEJ7SF-5" style="edgeStyle=orthogonalEdgeStyle;rounded=0;orthogonalLoop=1;jettySize=auto;html=1;exitX=0.5;exitY=1;exitDx=0;exitDy=0;entryX=0;entryY=0.5;entryDx=0;entryDy=0;fillColor=#dae8fc;strokeColor=#6c8ebf;" edge="1" parent="1" source="Glt7ink88-u7oXzEJ7SF-1" target="Glt7ink88-u7oXzEJ7SF-4">
          <mxGeometry relative="1" as="geometry">
            <mxPoint x="-1332.5" y="230" as="sourcePoint" />
          </mxGeometry>
        </mxCell>
        <mxCell id="Glt7ink88-u7oXzEJ7SF-6" value="Member&amp;nbsp;&lt;span style=&quot;background-color: transparent; color: light-dark(rgb(0, 0, 0), rgb(255, 255, 255));&quot;&gt;Data Field&lt;/span&gt;" style="text;html=1;align=center;verticalAlign=middle;resizable=0;points=[];autosize=1;strokeColor=none;fillColor=none;" vertex="1" parent="1">
          <mxGeometry x="-1313.5" y="240" width="130" height="30" as="geometry" />
        </mxCell>
        <mxCell id="Glt7ink88-u7oXzEJ7SF-7" value="position : 0&lt;div&gt;minCardinality : 0&lt;/div&gt;&lt;div&gt;maxCardinality : -1&lt;/div&gt;" style="text;html=1;align=center;verticalAlign=middle;resizable=0;points=[];autosize=1;strokeColor=none;fillColor=none;" vertex="1" parent="1">
          <mxGeometry x="-1428.5" y="242" width="120" height="60" as="geometry" />
        </mxCell>
        <mxCell id="Glt7ink88-u7oXzEJ7SF-8" value="position : 1&lt;div&gt;minCardinality : 1&lt;/div&gt;&lt;div&gt;maxCardinality : 1&lt;/div&gt;" style="text;html=1;align=center;verticalAlign=middle;resizable=0;points=[];autosize=1;strokeColor=none;fillColor=none;" vertex="1" parent="1">
          <mxGeometry x="-1427.5" y="309" width="120" height="60" as="geometry" />
        </mxCell>
      </root>
    </mxGraphModel>
  </diagram>
  <diagram name="schemas" id="y0hHP3-5CO9mSMOrvWNP">
    <mxGraphModel dx="1242" dy="820" grid="1" gridSize="10" guides="1" tooltips="1" connect="1" arrows="1" fold="1" page="1" pageScale="1" pageWidth="827" pageHeight="1169" math="0" shadow="0">
      <root>
        <mxCell id="CDa3MfYONH0zMbEh3Ma5-0" />
        <mxCell id="CDa3MfYONH0zMbEh3Ma5-1" parent="CDa3MfYONH0zMbEh3Ma5-0" />
        <mxCell id="CDa3MfYONH0zMbEh3Ma5-2" style="edgeStyle=orthogonalEdgeStyle;rounded=0;orthogonalLoop=1;jettySize=auto;html=1;exitX=0.5;exitY=1;exitDx=0;exitDy=0;entryX=0.5;entryY=0;entryDx=0;entryDy=0;" edge="1" parent="CDa3MfYONH0zMbEh3Ma5-1" source="CDa3MfYONH0zMbEh3Ma5-3" target="CDa3MfYONH0zMbEh3Ma5-6">
          <mxGeometry relative="1" as="geometry" />
        </mxCell>
        <mxCell id="CDa3MfYONH0zMbEh3Ma5-3" value="Deployed Database Schema" style="rounded=0;whiteSpace=wrap;html=1;fillColor=#fff2cc;strokeColor=#d6b656;" vertex="1" parent="CDa3MfYONH0zMbEh3Ma5-1">
          <mxGeometry x="200" y="280" width="120" height="60" as="geometry" />
        </mxCell>
        <mxCell id="CDa3MfYONH0zMbEh3Ma5-5" style="edgeStyle=orthogonalEdgeStyle;rounded=0;orthogonalLoop=1;jettySize=auto;html=1;entryX=0;entryY=0.5;entryDx=0;entryDy=0;fillColor=#e1d5e7;strokeColor=#9673a6;" edge="1" parent="CDa3MfYONH0zMbEh3Ma5-1" source="CDa3MfYONH0zMbEh3Ma5-6" target="CDa3MfYONH0zMbEh3Ma5-11">
          <mxGeometry relative="1" as="geometry" />
        </mxCell>
        <mxCell id="CDa3MfYONH0zMbEh3Ma5-6" value="Relational Schema Type" style="rounded=0;whiteSpace=wrap;html=1;fillColor=#e1d5e7;strokeColor=#9673a6;" vertex="1" parent="CDa3MfYONH0zMbEh3Ma5-1">
          <mxGeometry x="200" y="390" width="120" height="60" as="geometry" />
        </mxCell>
        <mxCell id="CDa3MfYONH0zMbEh3Ma5-7" value="Relational Column" style="rounded=0;whiteSpace=wrap;html=1;fillColor=#e1d5e7;strokeColor=#9673a6;" vertex="1" parent="CDa3MfYONH0zMbEh3Ma5-1">
          <mxGeometry x="470" y="620" width="120" height="60" as="geometry" />
        </mxCell>
        <mxCell id="CDa3MfYONH0zMbEh3Ma5-8" value="Relational Column" style="rounded=0;whiteSpace=wrap;html=1;fillColor=#e1d5e7;strokeColor=#9673a6;" vertex="1" parent="CDa3MfYONH0zMbEh3Ma5-1">
          <mxGeometry x="470" y="550" width="120" height="60" as="geometry" />
        </mxCell>
        <mxCell id="CDa3MfYONH0zMbEh3Ma5-9" style="edgeStyle=orthogonalEdgeStyle;rounded=0;orthogonalLoop=1;jettySize=auto;html=1;exitX=0.5;exitY=1;exitDx=0;exitDy=0;fillColor=#e1d5e7;strokeColor=#9673a6;" edge="1" parent="CDa3MfYONH0zMbEh3Ma5-1" source="CDa3MfYONH0zMbEh3Ma5-11" target="CDa3MfYONH0zMbEh3Ma5-8">
          <mxGeometry relative="1" as="geometry" />
        </mxCell>
        <mxCell id="CDa3MfYONH0zMbEh3Ma5-10" style="edgeStyle=orthogonalEdgeStyle;rounded=0;orthogonalLoop=1;jettySize=auto;html=1;exitX=0.5;exitY=1;exitDx=0;exitDy=0;entryX=0;entryY=0.5;entryDx=0;entryDy=0;fillColor=#e1d5e7;strokeColor=#9673a6;" edge="1" parent="CDa3MfYONH0zMbEh3Ma5-1" source="CDa3MfYONH0zMbEh3Ma5-11" target="CDa3MfYONH0zMbEh3Ma5-7">
          <mxGeometry relative="1" as="geometry" />
        </mxCell>
        <mxCell id="CDa3MfYONH0zMbEh3Ma5-11" value="Relational Table" style="rounded=0;whiteSpace=wrap;html=1;fillColor=#e1d5e7;strokeColor=#9673a6;" vertex="1" parent="CDa3MfYONH0zMbEh3Ma5-1">
          <mxGeometry x="310" y="490" width="120" height="60" as="geometry" />
        </mxCell>
      </root>
    </mxGraphModel>
  </diagram>
  <diagram id="thq_qeZQQbaprwv4QM7m" name="Page-5">
    <mxGraphModel dx="1035" dy="603" grid="1" gridSize="10" guides="1" tooltips="1" connect="1" arrows="1" fold="1" page="1" pageScale="1" pageWidth="827" pageHeight="1169" math="0" shadow="0">
      <root>
        <mxCell id="0" />
        <mxCell id="1" parent="0" />
        <mxCell id="eyiYDOm7ooPDdlabDD07-10" value="" style="shape=parallelogram;perimeter=parallelogramPerimeter;whiteSpace=wrap;html=1;fixedSize=1;flipV=1;flipH=0;size=40;rotation=350;" vertex="1" parent="1">
          <mxGeometry x="140" y="740" width="140" height="30" as="geometry" />
        </mxCell>
        <mxCell id="eyiYDOm7ooPDdlabDD07-11" value="" style="shape=parallelogram;perimeter=parallelogramPerimeter;whiteSpace=wrap;html=1;fixedSize=1;flipV=1;flipH=0;size=30.86999999999989;rotation=350;fillColor=#647687;fontColor=#ffffff;strokeColor=#314354;" vertex="1" parent="1">
          <mxGeometry x="159" y="747.2600000000001" width="120" height="21.74" as="geometry" />
        </mxCell>
        <mxCell id="eyiYDOm7ooPDdlabDD07-9" value="" style="shape=parallelogram;perimeter=parallelogramPerimeter;whiteSpace=wrap;html=1;fixedSize=1;rotation=350;" vertex="1" parent="1">
          <mxGeometry x="178" y="706" width="120" height="60" as="geometry" />
        </mxCell>
        <mxCell id="eyiYDOm7ooPDdlabDD07-13" value="" style="rounded=0;whiteSpace=wrap;html=1;" vertex="1" parent="1">
          <mxGeometry x="340" y="710" width="120" height="60" as="geometry" />
        </mxCell>
        <mxCell id="eyiYDOm7ooPDdlabDD07-14" value="" style="rounded=0;whiteSpace=wrap;html=1;fillColor=#647687;fontColor=#ffffff;strokeColor=#314354;" vertex="1" parent="1">
          <mxGeometry x="340" y="710" width="120" height="10" as="geometry" />
        </mxCell>
        <mxCell id="eyiYDOm7ooPDdlabDD07-17" value="" style="rounded=0;whiteSpace=wrap;html=1;" vertex="1" parent="1">
          <mxGeometry x="344" y="725" width="26" height="40" as="geometry" />
        </mxCell>
        <mxCell id="eyiYDOm7ooPDdlabDD07-18" value="" style="rounded=0;whiteSpace=wrap;html=1;" vertex="1" parent="1">
          <mxGeometry x="375" y="725" width="80" height="40" as="geometry" />
        </mxCell>
      </root>
    </mxGraphModel>
  </diagram>
</mxfile>
